PathFileType	4	(X/Y/Z)	7_coords_data.trc
DataRate	CameraRate	NumFrames	NumMarkers	Units	OrigDataRate	OrigDataStartFrame	OrigNumFrames
30.0	30.0	8	21	m	30.0	38	47
Frame#	Time	THUMB_TIP	THUMB_IP	THUMB_MCP	THUMB_CMC	INDEX_TIP	INDEX_DIP	INDEX_PIP	INDEX_MCP	MIDDLE_TIP	MIDDLE_DIP	MIDDLE_PIP	MIDDLE_MCP	RING_TIP	RING_DIP	RING_PIP	RING_MCP	PINKY_TIP	PINKY_DIP	PINKY_PIP	PINKY_MCP	WRIST
X1	Y1	Z1	X2	Y2	Z2	X3	Y3	Z3	X4	Y4	Z4	X5	Y5	Z5	X6	Y6	Z6	X7	Y7	Z7	X8	Y8	Z8	X9	Y9	Z9	X10	Y10	Z10	X11	Y11	Z11	X12	Y12	Z12	X13	Y13	Z13	X14	Y14	Z14	X15	Y15	Z15	X16	Y16	Z16	X17	Y17	Z17	X18	Y18	Z18	X19	Y19	Z19	X20	Y20	Z20	X21	Y21	Z21
36	1.233333333333328	0.5357971103382447	0.005410886548852689	-0.12682147371363425	0.5137954537784902	-0.00037103466657106843	-0.1300613032902086	0.48709935970340845	-0.010490080816122682	-0.11766196999532402	0.47706366214873386	-0.024418078257573916	-0.07648933755747733	0.4997949192586352	0.0035991631250511524	-0.1145231791047624	0.515650982142599	0.009001578348860617	-0.12140788531267988	0.5240117417678058	0.032493490485945076	-0.12460750960828254	0.4871591611013666	0.03875324945291203	-0.10420312748337945	0.5023770572757619	-0.005711104082214757	-0.09943176947211096	0.5196055827273646	-0.0008866679298429325	-0.10224294833073283	0.5356769055158432	0.023392858505016156	-0.10351838156203455	0.5005683448804935	0.04193620808889298	-0.08303226242433279	0.5052569085689443	-0.006098739434456268	-0.08062024725374028	0.5228761321083213	-0.0032706118538906592	-0.08318240576903788	0.540566343216057	0.01423759451529738	-0.08234627198927022	0.5130509246053302	0.037689837238395585	-0.06424613707448679	0.5100528113763027	-0.016036904915776917	-0.06433248127752927	0.526637294331346	-0.015790750982834667	-0.06856265070146109	0.5411638011972151	-0.001001519652458982	-0.06523530131606459	0.5205881121388383	0.02202241396977256	-0.04659601615455508	0.4622830810018608	-0.023011742144276925	-0.051989820119430985
37	1.2666666666666608	0.5341800582553461	0.005675070065338628	-0.13110858411203355	0.5119490959755307	-0.00010250300450154182	-0.13174416694383553	0.48582524032147056	-0.010256600889657852	-0.11820686802918887	0.47632302189552356	-0.02425028919742167	-0.07693006422207763	0.5042119731504757	0.0023241533077604792	-0.1160126904124239	0.5191999877086441	0.01019390305916612	-0.12244902931387905	0.5252834173965502	0.03449944501825064	-0.12450872499710186	0.4880943421945567	0.03842801155110298	-0.10413287790753448	0.5068984798046151	-0.007129485597367924	-0.10183841157268489	0.5234587345306227	-7.633970887077624e-05	-0.1038411837727406	0.5372863398038766	0.025578025449832453	-0.10359535718548274	0.50121513173095	0.04169416202980125	-0.0827318481111341	0.5096638329620877	-0.007975310290294524	-0.08319649039165541	0.5268297329718975	-0.002705885755301285	-0.08479806521763875	0.5426673985011733	0.016364968766738985	-0.08242091621474365	0.5134621730845845	0.037394150262068715	-0.06399405625427512	0.5140664161317493	-0.01737639537847635	-0.06734891340358926	0.530816900905619	-0.01503306479000499	-0.0699814144184974	0.5435870673628862	0.0009181723331505021	-0.06515514236912498	0.520826904506125	0.021688478948661882	-0.046408067908522865	0.462283081001861	-0.023011742144276925	-0.05198982011943096
39	1.3000000000000012	0.5317874373974305	0.0060694057355557	-0.1359598715707299	0.5096852336033194	0.0002203548134442901	-0.1336617874221107	0.48431466858776295	-0.009997458753193023	-0.118804105344853	0.47543094680040565	-0.02407859211449348	-0.07741943221015127	0.5098177223834215	0.001256625499613584	-0.11794724008990426	0.5233795480498067	0.011796868408192385	-0.12369007597670534	0.5266924852032293	0.03670825724675264	-0.12436608378104647	0.4892570867037722	0.03795379117839337	-0.10410094922901414	0.5123340913361706	-0.007768850179840414	-0.10422318538234684	0.5280773214580052	0.0010808438353405725	-0.10557729806917288	0.5391267179730613	0.027980009011602247	-0.10363943856103885	0.5020933858703379	0.04127874320812763	-0.08247758837870464	0.5152195217185916	-0.00925257542039648	-0.08593159975059728	0.531627163977169	-0.0018107596625785982	-0.08657086005848655	0.5450520782732023	0.018756099095040057	-0.08245309658928132	0.5140955150431444	0.03688870277607814	-0.06380850727415166	0.5194318628519118	-0.018502957882505555	-0.07054941846983473	0.5359022164412274	-0.013928639670586218	-0.07144555771069708	0.5463428218908886	0.003099539749323532	-0.06497664107126866	0.5212644507867373	0.02109856726174064	-0.04632205015188018	0.4622830810018609	-0.023011742144276925	-0.051989820119430985
40	1.3333333333333344	0.528800844047787	0.006234534868232777	-0.14086433553402836	0.5072052822676146	0.00038779716129366815	-0.1356253118096102	0.48267241582679044	-0.009783663116186614	-0.11939263304052442	0.47449266805677703	-0.023939189418689444	-0.07788838263748604	0.5167305544350512	0.0005980905121997226	-0.12051208759660909	0.5282749841018237	0.013738522555658661	-0.12520838287908265	0.5283824537228378	0.038859026633309646	-0.12422932304164602	0.4908567457784805	0.03716541636593418	-0.1041647019005168	0.5192266380180539	-0.00804480159652965	-0.10691717416076407	0.5338990636049028	0.0025605695307924226	-0.10741318892884147	0.54145581329693	0.030438456472073216	-0.10352365119522638	0.5034361509257265	0.04050091335801387	-0.08232459094251071	0.5223175222329813	-0.010224686502869007	-0.0890023346753733	0.5376217988176605	-0.0007138434974440777	-0.08843401826191644	0.5479724664953253	0.021108935174457222	-0.08236689467130451	0.5152536101967852	0.0358762832289069	-0.06376252131571342	0.5264871463034845	-0.019679295622424764	-0.07350270881561849	0.5421398934739989	-0.01281966114280264	-0.07253476211154114	0.5495897766146621	0.005070693389504943	-0.06445723310207291	0.5221288118271603	0.0199289584038308	-0.04640146325685035	0.4622830810018608	-0.023011742144276925	-0.05198982011943096
41	1.3666666666666676	0.5253013873299665	0.0061393031373222495	-0.14563193624297993	0.5045690328532234	0.00038140697380806277	-0.13756867948030263	0.4809364244453074	-0.009608495764775515	-0.1199470546088062	0.4735423404968456	-0.02383248069336652	-0.07831898985299135	0.525132870244228	0.0006349230540522166	-0.12382774252842546	0.5339088981653285	0.016151033927981007	-0.12702643558591167	0.5303283183941023	0.040860632617149006	-0.12408959815047935	0.49292413852896644	0.03600565005232448	-0.10431606617180084	0.5280609679415307	-0.007895414731585393	-0.1100113727855977	0.5411734716910012	0.004577058070504458	-0.10930450107075157	0.544267316190682	0.03290118302986422	-0.10317411596878784	0.5052912328207124	0.03927877581999273	-0.0822853832082664	0.5313952083845042	-0.01087752440850509	-0.09249824226005016	0.5450232143460154	0.000722935075466058	-0.09032872773514833	0.5514015692271166	0.023345492584048166	-0.08209972659396322	0.516991227150549	0.03424119385777058	-0.06388070121038647	0.5356123296477354	-0.020957206920975358	-0.07606041235301592	0.5496669664883668	-0.011672956300469384	-0.07301576562579046	0.5532654563650136	0.0066863225472428844	-0.06348687430520042	0.523447391560771	0.01806680953636708	-0.046686547575628345	0.4622830810018608	-0.023011742144276925	-0.051989820119430985
42	1.4000000000000008	0.5214041201087574	0.005764272948372007	-0.15012420331688903	0.5018443883140604	0.00018530134981431523	-0.13943346115266078	0.4791468482501612	-0.009465734151260619	-0.12044664496866936	0.4726167664535702	-0.023759008983492036	-0.07869798838788666	0.5352840130593476	0.0019069236960894687	-0.12804184201708285	0.5402750122038774	0.01928151249428489	-0.1291434733678205	0.53249759849406	0.042612118819003064	-0.12392768219989886	0.4954807891790246	0.03440622061731069	-0.10453554057402945	0.5396845051342467	-0.006946815884952495	-0.11365042507687861	0.5501829033314818	0.00759534052437516	-0.11113858864531229	0.547517452524053	0.035299959206908205	-0.10249225846143514	0.5076918406538751	0.037512035250194864	-0.08236329227475139	0.543307593505599	-0.010904594817749524	-0.09654519739194467	0.5540981718614705	0.002841644746975347	-0.09211752118709499	0.5552565298798353	0.025369245069654656	-0.0815654877620669	0.5193317826683765	0.0318434499274165	-0.06418106820740468	0.547656378862244	-0.022232535495861572	-0.07803242526836454	0.5586332792621918	-0.010305419021236273	-0.07253228434195655	0.5572448063814297	0.007770584101795319	-0.06194255945622226	0.5252106354342021	0.015381091177494643	-0.04721926075061508	0.4622830810018609	-0.023011742144276925	-0.051989820119430985
43	1.433333333333334	0.5172285759756385	0.005095170047916042	-0.15425985625840072	0.499104572410068	-0.00021406871088969215	-0.14117045296576805	0.47734504858081794	-0.009349603055214373	-0.12087549952980364	0.4717544650132105	-0.023719401837060228	-0.07901687725979983	0.5472627612629445	0.005499345685825885	-0.13316693177866265	0.5472018447967132	0.023529180192649934	-0.1314577340602347	0.5348422831556641	0.04400420730607035	-0.12371019679050782	0.4985327339498008	0.03228869334741491	-0.10478932304874994	0.5553459479951138	-0.003906509489451593	-0.11779703260710409	0.5609493094398923	0.012498222628926636	-0.11255421803443227	0.5511020981644043	0.037536113666642335	-0.10134948722644851	0.5106464239861196	0.0350808937878232	-0.08254900204315771	0.5593816081563715	-0.009008593676410603	-0.10093137435996616	0.564932853081038	0.006391659615800127	-0.09338048843034705	0.5593611426092806	0.027055408734899533	-0.0806468521169513	0.5222484428244868	0.02852087297734951	-0.06467122182460094	0.564155330225706	-0.02244103766908434	-0.07869569846709118	0.5689254155325306	-0.00821795336893949	-0.0704525098148408	0.5612968887489344	0.008115217322304913	-0.05968937210864067	0.5273535946600242	0.011728455953571193	-0.04804116435004996	0.4622830810018609	-0.023011742144276925	-0.051989820119430985
44	1.4666666666666672	0.5128732589534855	0.0041151859301686855	-0.15800423321478257	0.4964250112605346	-0.0008289249385949882	-0.14273953814581009	0.47557273693622526	-0.009254799096727218	-0.1212219337211752	0.4709948680600343	-0.023714395572037694	-0.07927132959771127	0.56009820650656	0.01293295687623952	-0.1385770545040529	0.5541029252280898	0.029289302919283333	-0.13362462615906592	0.537287318186048	0.04492292691764255	-0.12338573005227971	0.5020619286642785	0.029568569202910067	-0.10502676150261289	0.5750894977890343	0.004428030552271478	-0.1210515509461968	0.5724258010552633	0.020263452669841975	-0.11267634192976858	0.5548292601968372	0.03945960350814126	-0.09958897806950232	0.5141237852030212	0.03185072433514691	-0.08281646531027073	0.5794661486183178	-0.0019933097384211562	-0.10365598184255806	0.5765800116478194	0.012348176199089567	-0.09312070802116615	0.5633987930526321	0.028237455090926677	-0.07919353057405545	0.525639094769514	0.024105057083256942	-0.06534256287233511	0.5845590478815994	-0.018054334966575714	-0.07534776806762203	0.5793154394213588	-0.004785712073869797	-0.0658900613240796	0.5650281249262507	0.007477408490219273	-0.056600253061876576	0.529733984624318	0.0069743488875121384	-0.049187153684179724	0.462283081001861	-0.023011742144276925	-0.051989820119430985
